<svg width="20" height="21" viewBox="0 0 20 21" fill="none" xmlns="http://www.w3.org/2000/svg">
<path d="M3 7.84108L9.11358 12.0098C9.35776 12.2271 9.67319 12.3471 10 12.3471C10.3268 12.3471 10.6422 12.2271 10.8864 12.0098L16.9999 7.84108" stroke="#183137" stroke-width="2" stroke-miterlimit="10" stroke-linecap="round" stroke-linejoin="round"/>
<path d="M16.5564 13.2357L10.8914 17.0096C10.6472 17.2269 10.3318 17.3469 10.005 17.3469C9.67816 17.3469 9.36273 17.2269 9.11856 17.0096L3.44821 13.2357C3.30802 13.1103 3.19594 12.9567 3.11932 12.7849C3.04271 12.6131 3.00329 12.4271 3.00366 12.239L3.00372 4.01304C3.00401 3.88475 3.0413 3.75926 3.11112 3.65164C3.18094 3.54401 3.28033 3.45881 3.39736 3.40625C3.51439 3.35369 3.6441 3.33601 3.77093 3.35533C3.89776 3.37465 4.01633 3.43014 4.11241 3.51515L9.11371 7.00972C9.35788 7.22694 9.67331 7.34694 10.0001 7.34694C10.3269 7.34694 10.6424 7.22694 10.8865 7.00972L15.8914 3.51515C15.9875 3.42986 16.1061 3.37412 16.2331 3.35465C16.3601 3.33517 16.49 3.35279 16.6072 3.40538C16.7244 3.45797 16.8239 3.54329 16.8938 3.6511C16.9636 3.7589 17.0009 3.88458 17.001 4.01304L17.0009 12.2426C17.0008 12.4301 16.9612 12.6154 16.8846 12.7865C16.808 12.9577 16.6961 13.1107 16.5564 13.2357Z" stroke="#183137" stroke-width="2" stroke-miterlimit="10" stroke-linecap="round" stroke-linejoin="round"/>
</svg>
