<svg width="20" height="21" viewBox="0 0 20 21" fill="none" xmlns="http://www.w3.org/2000/svg">
<path d="M11.2192 3.4385C11.0912 3.36714 10.9445 3.33633 10.7985 3.35017C10.6526 3.36401 10.5143 3.42183 10.4019 3.516C10.2895 3.61016 10.2084 3.73622 10.1693 3.87749C10.1301 4.01877 10.1348 4.16861 10.1826 4.30718C10.4506 5.12068 10.5481 5.98065 10.4693 6.8335C10.3904 7.68636 10.1368 8.51384 9.72416 9.26441C9.19209 9.30547 8.66429 9.14292 8.24751 8.80963C7.83073 8.47635 7.55608 7.99722 7.47912 7.46915C6.6824 7.9044 6.0267 8.5583 5.58927 9.35382C5.15184 10.1493 4.95091 11.0533 5.01015 11.9592C5.01015 13.3881 5.57779 14.7585 6.58818 15.7689C7.59857 16.7793 8.96895 17.3469 10.3979 17.3469C11.8207 17.3275 13.1798 16.7536 14.186 15.7474C15.1922 14.7412 15.7661 13.3821 15.7856 11.9592C15.947 10.2473 15.5998 8.52575 14.7876 7.01014C13.9753 5.49452 12.7341 4.25214 11.2192 3.4385V3.4385Z" stroke="#183137" stroke-width="2" stroke-miterlimit="10" stroke-linecap="round" stroke-linejoin="round"/>
</svg>
