<svg width="20" height="21" viewBox="0 0 20 21" fill="none" xmlns="http://www.w3.org/2000/svg">
<path fill-rule="evenodd" clip-rule="evenodd" d="M4 10.3469C4 7.03323 6.68629 4.34694 10 4.34694C13.3137 4.34694 16 7.03323 16 10.3469C16 13.6606 13.3137 16.3469 10 16.3469C6.68629 16.3469 4 13.6606 4 10.3469ZM10 2.34694C5.58172 2.34694 2 5.92866 2 10.3469C2 14.7652 5.58172 18.3469 10 18.3469C14.4183 18.3469 18 14.7652 18 10.3469C18 5.92866 14.4183 2.34694 10 2.34694ZM14 8.34694C14 8.89922 13.5523 9.34694 13 9.34694C12.4477 9.34694 12 8.89922 12 8.34694C12 7.79465 12.4477 7.34694 13 7.34694C13.5523 7.34694 14 7.79465 14 8.34694ZM7 9.34694C7.55228 9.34694 8 8.89922 8 8.34694C8 7.79465 7.55228 7.34694 7 7.34694C6.44772 7.34694 6 7.79465 6 8.34694C6 8.89922 6.44772 9.34694 7 9.34694ZM7.85714 11.8319C7.57267 11.3585 6.95831 11.2053 6.48492 11.4898C6.01153 11.7743 5.85839 12.3886 6.14286 12.862C6.54285 13.5276 7.10829 14.0784 7.78419 14.4608C8.46008 14.8432 9.22343 15.0442 10 15.0442C10.7766 15.0442 11.5399 14.8432 12.2158 14.4608C12.8917 14.0784 13.4572 13.5276 13.8571 12.862C14.1416 12.3886 13.9885 11.7743 13.5151 11.4898C13.0417 11.2053 12.4273 11.3585 12.1429 11.8319C11.9206 12.2017 11.6065 12.5076 11.231 12.7201C10.8555 12.9325 10.4314 13.0442 10 13.0442C9.56857 13.0442 9.14449 12.9325 8.76899 12.7201C8.39349 12.5076 8.07936 12.2017 7.85714 11.8319Z" fill="#183137"/>
</svg>
